<svg xmlns="http://www.w3.org/2000/svg" xmlns:xlink="http://www.w3.org/1999/xlink" id="Capa_1" x="0px" y="0px" viewBox="0 0 415.3 213.2" style="enable-background:new 0 0 415.3 213.2;" xml:space="preserve"><style type="text/css">	.st0{fill:#006633;}	.st1{fill:#678792;}	.st2{fill:#67C04D;}</style><g>	<g>		<g>			<path class="st0" d="M137.9,97c0,0,45.4,23.7,104.7,8.7C310.8,88.5,341.1,57.6,370,37c24.2-18.7,45.3-37,45.3-37v8.3    c0,0-68.8,58.2-105.7,81.1c-17.7,12.9-63,34.2-85,37.8c-65.6,11.3-101.3-11.5-101.3-11.5L137.9,97z"/>			<g>				<g>					<path class="st1" d="M211.9,152.2c3.4-1.5,7.3-2.7,11.9-3.6c4.6-0.9,9.4-1.3,14.5-1.3c4.4,0,8,0.5,10.9,1.6      c2.9,1,5.3,2.5,7,4.5c1.7,1.9,2.9,4.2,3.6,6.9c0.7,2.7,1.1,5.7,1.1,9.1c0,3.7-0.1,7.4-0.4,11.1c-0.3,3.7-0.4,7.4-0.4,11      c0,3.6,0.1,7.1,0.3,10.5c0.3,3.4,0.9,6.6,1.9,9.6H249l-2.6-8.7h-0.6c-1.7,2.6-4,4.8-7,6.7c-3,1.9-6.8,2.8-11.5,2.8      c-2.9,0-5.6-0.4-7.9-1.3c-2.3-0.9-4.4-2.1-6-3.8c-1.7-1.6-3-3.6-3.9-5.8c-0.9-2.2-1.4-4.7-1.4-7.5c0-3.9,0.9-7.1,2.6-9.7      c1.7-2.6,4.2-4.8,7.4-6.4c3.2-1.6,7.1-2.8,11.6-3.4c4.5-0.6,9.5-0.8,15-0.6c0.6-4.7,0.3-8.1-1-10.1c-1.3-2.1-4.1-3.1-8.4-3.1      c-3.3,0-6.7,0.3-10.4,1c-3.6,0.7-6.6,1.6-9,2.6L211.9,152.2z M232.6,199c3.3,0,5.9-0.7,7.8-2.2c1.9-1.5,3.4-3,4.3-4.7v-8.2      c-2.6-0.3-5.1-0.3-7.5-0.1c-2.4,0.2-4.5,0.5-6.4,1.1c-1.8,0.6-3.3,1.4-4.4,2.5c-1.1,1.1-1.6,2.5-1.6,4.1c0,2.3,0.7,4.2,2.1,5.5      C228.3,198.3,230.2,199,232.6,199z"/>				</g>				<g>					<path class="st1" d="M318.4,207.5c-2.5,1.8-5.6,3.2-9.1,4.2c-3.6,1-7.2,1.4-11,1.4c-5,0-9.3-0.8-12.8-2.4      c-3.5-1.6-6.3-3.8-8.5-6.7c-2.2-2.9-3.8-6.4-4.7-10.5c-1-4.1-1.4-8.6-1.4-13.6c0-10.6,2.4-18.8,7.2-24.6      c4.8-5.7,11.7-8.6,20.9-8.6c4.6,0,8.3,0.4,11.1,1.1c2.8,0.8,5.3,1.7,7.6,2.9l-3.9,13.3c-1.9-0.9-3.8-1.6-5.7-2.1      s-4-0.8-6.5-0.8c-4.5,0-8,1.5-10.3,4.5c-2.3,3-3.5,7.7-3.5,14.3c0,2.7,0.3,5.2,0.9,7.4c0.6,2.3,1.5,4.2,2.6,5.9      c1.2,1.7,2.7,3,4.6,4c1.9,1,4.1,1.4,6.6,1.4c2.8,0,5.1-0.4,7-1.1c1.9-0.7,3.6-1.6,5.2-2.6L318.4,207.5z"/>				</g>				<g>					<path class="st1" d="M381,189.3c0,3.5,0,7,0.1,10.6c0.1,3.5,0.5,7.4,1.1,11.7h-11.7l-2.3-8.2h-0.5c-1.7,2.9-4.1,5.3-7.2,7.1      s-6.9,2.7-11.1,2.7c-7.9,0-14-2.6-18.4-7.8c-4.4-5.2-6.5-13.3-6.5-24.4c0-10.7,2.4-19.1,7.3-25c4.9-6,12-8.9,21.4-8.9      c2.6,0,4.7,0.1,6.4,0.4c1.7,0.3,3.4,0.8,5,1.4v-25.5H381V189.3z M353.2,199.3c3.2,0,5.7-0.8,7.5-2.3c1.8-1.6,3.1-3.8,3.9-6.7      v-26.7c-1.2-0.9-2.5-1.6-3.9-2.1c-1.4-0.5-3.3-0.7-5.5-0.7c-4.6,0-8.1,1.6-10.4,4.7c-2.3,3.1-3.5,8.4-3.5,16      c0,5.4,0.9,9.7,2.8,13C346.1,197.7,349.1,199.3,353.2,199.3z"/>				</g>				<g>					<path class="st1" d="M393.6,130.8c0-2.4,0.9-4.5,2.7-6.2c1.8-1.7,4.3-2.6,7.5-2.6c3.2,0,5.8,0.9,7.7,2.6c2,1.7,3,3.8,3,6.2      c0,2.4-1,4.5-3,6.1c-2,1.6-4.5,2.5-7.7,2.5c-3.2,0-5.7-0.8-7.5-2.5C394.5,135.3,393.6,133.2,393.6,130.8z M395.9,148.5h16.3      v62.9h-16.3V148.5z"/>				</g>			</g>			<g>				<path class="st2" d="M277.4,52.8c0,0-45.4-23.7-104.7-8.7c-68.2,17.2-98.5,48.1-127.4,68.8c-24.2,18.7-45.3,37-45.3,37v-8.3     c0,0,68.8-58.2,105.7-81.1c17.7-12.9,63-34.2,85-37.8c65.6-11.3,101.3,11.5,101.3,11.5L277.4,52.8z"/>			</g>		</g>	</g></g></svg>